<svg width="360" height="160" viewBox="0 0 360 160" fill="none" xmlns="http://www.w3.org/2000/svg">
<path d="M64 21H24L64 61V21Z" fill="#10B981"/>
<path d="M64 21V61L104 21H64Z" fill="#10B981"/>
<path d="M104 101V61H64L104 101Z" fill="#10B981"/>
<path d="M104 21L64 61H104V21Z" fill="#10B981"/>
<path d="M48 77L64 61L68 77H48Z" fill="#10B981"/>
<path d="M68 77H80L64 61L68 77Z" fill="#10B981"/>
<path d="M48 57L64 61L48 77V57Z" fill="#10B981"/>
<path d="M48 45L64 61L48 57V45Z" fill="#10B981"/>
<path opacity="0.6" d="M64 21H24L64 61V21Z" fill="white"/>
<path opacity="0.75" d="M64 21V61L104 21H64Z" fill="white"/>
<path opacity="0.3" d="M104 21L64 61H104V21Z" fill="white"/>
<path opacity="0.25" d="M48 77L64 61L68 77H48Z" fill="black"/>
<path opacity="0.4" d="M68 77H80L64 61L68 77Z" fill="black"/>
<path opacity="0.1" d="M48 57L64 61L48 77V57Z" fill="black"/>
<path opacity="0.4" d="M48 45L64 61L48 57V45Z" fill="black"/>
<path d="M149.376 47H156.288V79H149.376V74.392C146.773 78.0187 143.04 79.832 138.176 79.832C133.781 79.832 130.027 78.2107 126.912 74.968C123.797 71.6827 122.24 67.6933 122.24 63C122.24 58.264 123.797 54.2747 126.912 51.032C130.027 47.7893 133.781 46.168 138.176 46.168C143.04 46.168 146.773 47.96 149.376 51.544V47ZM132.032 70.36C133.952 72.28 136.363 73.24 139.264 73.24C142.165 73.24 144.576 72.28 146.496 70.36C148.416 68.3973 149.376 65.944 149.376 63C149.376 60.056 148.416 57.624 146.496 55.704C144.576 53.7413 142.165 52.76 139.264 52.76C136.363 52.76 133.952 53.7413 132.032 55.704C130.112 57.624 129.152 60.056 129.152 63C129.152 65.944 130.112 68.3973 132.032 70.36ZM185.913 47H192.825V79H185.913V74.904C183.822 78.1893 180.515 79.832 175.993 79.832C172.323 79.832 169.358 78.6587 167.097 76.312C164.835 73.9653 163.705 70.744 163.705 66.648V47H170.617V65.944C170.617 68.3333 171.257 70.168 172.537 71.448C173.817 72.728 175.566 73.368 177.785 73.368C180.217 73.368 182.179 72.6213 183.673 71.128C185.166 69.592 185.913 67.2667 185.913 64.152V47ZM209.163 72.472H224.715V79H199.755V74.392L214.731 53.528H200.395V47H224.075V51.608L209.163 72.472ZM266.101 46.168C269.728 46.168 272.65 47.3413 274.869 49.688C277.088 52.0347 278.197 55.192 278.197 59.16V79H271.285V59.608C271.285 57.3893 270.73 55.6827 269.621 54.488C268.512 53.2507 266.997 52.632 265.077 52.632C262.944 52.632 261.237 53.336 259.957 54.744C258.72 56.152 258.101 58.264 258.101 61.08V79H251.189V59.608C251.189 57.3893 250.656 55.6827 249.589 54.488C248.565 53.2507 247.093 52.632 245.173 52.632C243.082 52.632 241.376 53.3573 240.053 54.808C238.73 56.216 238.069 58.3067 238.069 61.08V79H231.157V47H238.069V50.84C240.117 47.7253 243.168 46.168 247.221 46.168C251.317 46.168 254.346 47.8533 256.309 51.224C258.442 47.8533 261.706 46.168 266.101 46.168ZM300.699 79.832C296.005 79.832 292.016 78.2107 288.731 74.968C285.445 71.7253 283.803 67.736 283.803 63C283.803 58.264 285.445 54.2747 288.731 51.032C292.016 47.7893 296.005 46.168 300.699 46.168C305.435 46.168 309.424 47.7893 312.667 51.032C315.952 54.2747 317.595 58.264 317.595 63C317.595 67.736 315.952 71.7253 312.667 74.968C309.424 78.2107 305.435 79.832 300.699 79.832ZM293.595 70.232C295.515 72.152 297.883 73.112 300.699 73.112C303.515 73.112 305.883 72.152 307.803 70.232C309.723 68.312 310.683 65.9013 310.683 63C310.683 60.0987 309.723 57.688 307.803 55.768C305.883 53.848 303.515 52.888 300.699 52.888C297.883 52.888 295.515 53.848 293.595 55.768C291.675 57.688 290.715 60.0987 290.715 63C290.715 65.9013 291.675 68.312 293.595 70.232ZM330.757 52.376C332.506 48.408 335.791 46.424 340.613 46.424V53.912C337.967 53.7413 335.663 54.3813 333.701 55.832C331.738 57.24 330.757 59.5867 330.757 62.872V79H323.845V47H330.757V52.376Z" fill="black"/>
<path d="M246.82 127.952C243.74 131.032 239.971 132.572 235.512 132.572C231.053 132.572 227.269 131.032 224.16 127.952C221.08 124.843 219.54 121.059 219.54 116.6C219.54 112.141 221.08 108.372 224.16 105.292C227.269 102.183 231.053 100.628 235.512 100.628C239.971 100.628 243.74 102.183 246.82 105.292C249.929 108.372 251.484 112.141 251.484 116.6C251.484 121.059 249.929 124.843 246.82 127.952ZM227.724 124.52C229.836 126.603 232.432 127.644 235.512 127.644C238.592 127.644 241.173 126.603 243.256 124.52C245.368 122.408 246.424 119.768 246.424 116.6C246.424 113.432 245.368 110.807 243.256 108.724C241.173 106.612 238.592 105.556 235.512 105.556C232.432 105.556 229.836 106.612 227.724 108.724C225.641 110.807 224.6 113.432 224.6 116.6C224.6 119.768 225.641 122.408 227.724 124.52ZM267.76 105.204C264.298 104.881 262.568 106.333 262.568 109.56V110H267.76V114.576H262.568V132H257.816V114.576H254.472V110H257.816V109.56C257.816 106.539 258.652 104.251 260.324 102.696C262.025 101.112 264.504 100.423 267.76 100.628V105.204ZM282.508 105.204C279.047 104.881 277.316 106.333 277.316 109.56V110H282.508V114.576H277.316V132H272.564V114.576H269.22V110H272.564V109.56C272.564 106.539 273.4 104.251 275.072 102.696C276.773 101.112 279.252 100.423 282.508 100.628V105.204ZM290.217 105.82C289.63 106.407 288.926 106.7 288.105 106.7C287.283 106.7 286.565 106.407 285.949 105.82C285.362 105.204 285.069 104.485 285.069 103.664C285.069 102.843 285.362 102.139 285.949 101.552C286.535 100.936 287.254 100.628 288.105 100.628C288.955 100.628 289.674 100.936 290.261 101.552C290.847 102.139 291.141 102.843 291.141 103.664C291.141 104.485 290.833 105.204 290.217 105.82ZM285.729 132V110H290.481V132H285.729ZM306.822 132.572C303.508 132.572 300.736 131.457 298.506 129.228C296.306 126.999 295.206 124.256 295.206 121C295.206 117.715 296.306 114.972 298.506 112.772C300.736 110.543 303.508 109.428 306.822 109.428C308.964 109.428 310.914 109.941 312.674 110.968C314.434 111.995 315.754 113.373 316.634 115.104L312.542 117.48C312.044 116.424 311.281 115.603 310.254 115.016C309.257 114.4 308.098 114.092 306.778 114.092C304.842 114.092 303.214 114.752 301.894 116.072C300.604 117.392 299.958 119.035 299.958 121C299.958 122.965 300.604 124.608 301.894 125.928C303.214 127.248 304.842 127.908 306.778 127.908C308.069 127.908 309.228 127.6 310.254 126.984C311.31 126.368 312.102 125.547 312.63 124.52L316.722 126.852C315.784 128.612 314.434 130.005 312.674 131.032C310.914 132.059 308.964 132.572 306.822 132.572ZM324.466 123.024C324.818 124.696 325.625 125.987 326.886 126.896C328.147 127.776 329.687 128.216 331.506 128.216C334.029 128.216 335.921 127.307 337.182 125.488L341.098 127.776C338.927 130.973 335.715 132.572 331.462 132.572C327.883 132.572 324.994 131.487 322.794 129.316C320.594 127.116 319.494 124.344 319.494 121C319.494 117.715 320.579 114.972 322.75 112.772C324.921 110.543 327.707 109.428 331.11 109.428C334.337 109.428 336.977 110.557 339.03 112.816C341.113 115.075 342.154 117.817 342.154 121.044C342.154 121.543 342.095 122.203 341.978 123.024H324.466ZM324.422 119.152H337.358C337.035 117.363 336.287 116.013 335.114 115.104C333.97 114.195 332.621 113.74 331.066 113.74C329.306 113.74 327.839 114.224 326.666 115.192C325.493 116.16 324.745 117.48 324.422 119.152Z" fill="#10B981"/>
</svg>
